  # WaveFront *.obj file (generated by Autodesk ATF)

mtllib 9ff2411d-acd3-4017-aee4-c005ffd81c34.mtl

g Body1

v 86.110390 14.221300 0.000000
v 36.110390 14.221300 0.000000
v 36.110390 14.221300 3.000000
v 86.110390 14.221300 3.000000
v 86.110390 64.221300 0.000000
v 86.110390 64.221300 3.000000
v 36.110390 64.221300 0.000000
v 36.110390 64.221300 3.000000
v 2.000000 2.000000 60.000000
v 118.000000 2.000000 60.000000
v 118.000000 2.000000 3.000000
v 2.000000 2.000000 3.000000
v 118.000000 78.000000 60.000000
v 118.000000 78.000000 3.000000
v 2.000000 78.000000 60.000000
v 2.000000 78.000000 3.000000
v 120.000000 80.000000 0.000000
v 0.000000 80.000000 0.000000
v 0.000000 80.000000 60.000000
v 120.000000 80.000000 60.000000
v 120.000000 0.000000 0.000000
v 120.000000 0.000000 60.000000
v 0.000000 0.000000 0.000000
v 0.000000 0.000000 60.000000
vt -0.000000 0.300000 0.000000
vt -5.000000 0.300000 0.000000
vt 0.000000 0.000000 0.000000
vt -5.000000 0.000000 0.000000
vt -0.000000 0.300000 0.000000
vt -5.000000 0.300000 0.000000
vt 0.000000 0.000000 0.000000
vt -5.000000 0.000000 0.000000
vt -0.000000 0.300000 0.000000
vt -5.000000 0.300000 0.000000
vt -0.000000 0.000000 0.000000
vt -5.000000 0.000000 0.000000
vt -0.000000 0.300000 0.000000
vt -5.000000 0.300000 0.000000
vt -0.000000 0.000000 0.000000
vt -5.000000 0.000000 0.000000
vt -11.600000 0.000000 0.000000
vt 0.000000 0.000000 0.000000
vt -11.600000 5.700000 0.000000
vt -0.000000 5.700000 0.000000
vt -7.600000 0.000000 0.000000
vt 0.000000 0.000000 0.000000
vt -7.600000 5.700000 0.000000
vt -0.000000 5.700000 0.000000
vt -11.600000 0.000000 0.000000
vt -0.000000 0.000000 0.000000
vt -11.600000 5.700000 0.000000
vt -0.000000 5.700000 0.000000
vt -7.600000 0.000000 0.000000
vt -0.000000 0.000000 0.000000
vt -7.600000 5.700000 0.000000
vt -0.000000 5.700000 0.000000
vt 2.611039 2.422130 0.000000
vt 5.800000 3.800000 0.000000
vt -2.388961 2.422130 0.000000
vt -5.800000 3.800000 0.000000
vt -5.800000 -3.800000 0.000000
vt 5.800000 -3.800000 0.000000
vt 2.611039 -2.577870 0.000000
vt -2.388961 -2.577870 0.000000
vt 0.000000 0.000000 0.000000
vt 12.000000 0.000000 0.000000
vt 0.000000 6.000000 0.000000
vt 12.000000 6.000000 0.000000
vt 0.000000 0.000000 0.000000
vt 8.000000 0.000000 0.000000
vt 0.000000 6.000000 0.000000
vt 8.000000 6.000000 0.000000
vt 0.000000 0.000000 0.000000
vt 12.000000 0.000000 0.000000
vt 0.000000 6.000000 0.000000
vt 12.000000 6.000000 0.000000
vt 0.000000 0.000000 0.000000
vt 8.000000 0.000000 0.000000
vt 0.000000 6.000000 0.000000
vt 8.000000 6.000000 0.000000
vt 5.800000 3.800000 0.000000
vt 5.800000 -3.800000 0.000000
vt 6.000000 -4.000000 0.000000
vt -5.800000 -3.800000 0.000000
vt -6.000000 -4.000000 0.000000
vt -5.800000 3.800000 0.000000
vt -6.000000 4.000000 0.000000
vt 6.000000 4.000000 0.000000
vt 2.388961 2.422130 0.000000
vt -6.000000 4.000000 0.000000
vt -2.611039 2.422130 0.000000
vt -6.000000 -4.000000 0.000000
vt -2.611039 -2.577870 0.000000
vt 2.388961 -2.577870 0.000000
vt 6.000000 -4.000000 0.000000
vt 6.000000 4.000000 0.000000
vn -0.000000 0.100000 -0.000000
vn -0.000000 0.100000 -0.000000
vn -0.000000 0.100000 -0.000000
vn -0.000000 0.100000 -0.000000
vn -0.100000 0.000000 -0.000000
vn -0.100000 0.000000 -0.000000
vn -0.100000 0.000000 -0.000000
vn -0.100000 0.000000 -0.000000
vn 0.000000 -0.100000 0.000000
vn 0.000000 -0.100000 0.000000
vn 0.000000 -0.100000 0.000000
vn 0.000000 -0.100000 0.000000
vn 0.100000 0.000000 0.000000
vn 0.100000 0.000000 0.000000
vn 0.100000 0.000000 0.000000
vn 0.100000 0.000000 0.000000
vn -0.000000 0.100000 -0.000000
vn -0.000000 0.100000 -0.000000
vn -0.000000 0.100000 -0.000000
vn -0.000000 0.100000 -0.000000
vn -0.100000 0.000000 -0.000000
vn -0.100000 0.000000 -0.000000
vn -0.100000 0.000000 -0.000000
vn -0.100000 0.000000 -0.000000
vn 0.000000 -0.100000 0.000000
vn 0.000000 -0.100000 0.000000
vn 0.000000 -0.100000 0.000000
vn 0.000000 -0.100000 0.000000
vn 0.100000 0.000000 0.000000
vn 0.100000 0.000000 0.000000
vn 0.100000 0.000000 0.000000
vn 0.100000 0.000000 0.000000
vn 0.000000 0.000000 0.100000
vn 0.000000 0.000000 0.100000
vn 0.000000 0.000000 0.100000
vn 0.000000 0.000000 0.100000
vn 0.000000 0.000000 0.100000
vn 0.000000 0.000000 0.100000
vn 0.000000 0.000000 0.100000
vn 0.000000 0.000000 0.100000
vn 0.000000 0.100000 0.000000
vn 0.000000 0.100000 0.000000
vn 0.000000 0.100000 0.000000
vn 0.000000 0.100000 0.000000
vn 0.100000 0.000000 0.000000
vn 0.100000 0.000000 0.000000
vn 0.100000 0.000000 0.000000
vn 0.100000 0.000000 0.000000
vn 0.000000 -0.100000 0.000000
vn 0.000000 -0.100000 0.000000
vn 0.000000 -0.100000 0.000000
vn 0.000000 -0.100000 0.000000
vn -0.100000 0.000000 0.000000
vn -0.100000 0.000000 0.000000
vn -0.100000 0.000000 0.000000
vn -0.100000 0.000000 0.000000
vn 0.000000 0.000000 0.100000
vn 0.000000 0.000000 0.100000
vn 0.000000 0.000000 0.100000
vn 0.000000 0.000000 0.100000
vn 0.000000 0.000000 0.100000
vn 0.000000 0.000000 0.100000
vn 0.000000 0.000000 0.100000
vn 0.000000 0.000000 0.100000
vn 0.000000 0.000000 -0.100000
vn 0.000000 0.000000 -0.100000
vn 0.000000 0.000000 -0.100000
vn 0.000000 0.000000 -0.100000
vn 0.000000 0.000000 -0.100000
vn 0.000000 0.000000 -0.100000
vn 0.000000 0.000000 -0.100000
vn 0.000000 0.000000 -0.100000
usemtl Steel_-_Satin
f 1/1/1 2/2/2 4/3/3
f 4/3/3 2/2/2 3/4/4
f 5/5/5 1/6/6 6/7/7
f 6/7/7 1/6/6 4/8/8
f 7/9/9 5/10/10 8/11/11
f 8/11/11 5/10/10 6/12/12
f 2/13/13 7/14/14 3/15/15
f 3/15/15 7/14/14 8/16/16
f 9/17/17 10/18/18 12/19/19
f 12/19/19 10/18/18 11/20/20
f 10/21/21 13/22/22 11/23/23
f 11/23/23 13/22/22 14/24/24
f 13/25/25 15/26/26 14/27/27
f 14/27/27 15/26/26 16/28/28
f 15/29/29 9/30/30 16/31/31
f 16/31/31 9/30/30 12/32/32
f 6/33/33 14/34/34 8/35/35
f 8/35/35 14/34/34 16/36/36
f 8/35/35 16/36/36 12/37/37
f 14/34/34 6/33/33 11/38/38
f 11/38/38 6/33/33 4/39/39
f 11/38/38 4/39/39 3/40/40
f 11/38/38 3/40/40 12/37/37
f 12/37/37 3/40/40 8/35/35
f 17/41/41 18/42/42 20/43/43
f 20/43/43 18/42/42 19/44/44
f 21/45/45 17/46/46 22/47/47
f 22/47/47 17/46/46 20/48/48
f 23/49/49 21/50/50 24/51/51
f 24/51/51 21/50/50 22/52/52
f 18/53/53 23/54/54 19/55/55
f 19/55/55 23/54/54 24/56/56
f 13/57/57 10/58/58 22/59/59
f 22/59/59 10/58/58 9/60/60
f 22/59/59 9/60/60 24/61/61
f 24/61/61 9/60/60 15/62/62
f 24/61/61 15/62/62 19/63/63
f 19/63/63 15/62/62 13/57/57
f 19/63/63 13/57/57 20/64/64
f 20/64/64 13/57/57 22/59/59
f 7/65/65 17/66/66 5/67/67
f 5/67/67 17/66/66 21/68/68
f 5/67/67 21/68/68 1/69/69
f 1/69/69 21/68/68 2/70/70
f 2/70/70 21/68/68 23/71/71
f 2/70/70 23/71/71 7/65/65
f 7/65/65 23/71/71 18/72/72
f 7/65/65 18/72/72 17/66/66
# 24 vertices
# 72 texture params
# 72 normals
# 48 facets

# 1 groups
